<svg aria-hidden="true" style="position: absolute; width: 0; height: 0; overflow: hidden;" version="1.1" xmlns="http://www.w3.org/2000/svg" xmlns:xlink="http://www.w3.org/1999/xlink">
<defs>
<symbol id="icon-envelope-o" viewBox="0 0 28 28">
<title>envelope-o</title>
<path d="M26 23.5v-12c-0.328 0.375-0.688 0.719-1.078 1.031-2.234 1.719-4.484 3.469-6.656 5.281-1.172 0.984-2.625 2.188-4.25 2.188h-0.031c-1.625 0-3.078-1.203-4.25-2.188-2.172-1.813-4.422-3.563-6.656-5.281-0.391-0.313-0.75-0.656-1.078-1.031v12c0 0.266 0.234 0.5 0.5 0.5h23c0.266 0 0.5-0.234 0.5-0.5zM26 7.078c0-0.391 0.094-1.078-0.5-1.078h-23c-0.266 0-0.5 0.234-0.5 0.5 0 1.781 0.891 3.328 2.297 4.438 2.094 1.641 4.188 3.297 6.266 4.953 0.828 0.672 2.328 2.109 3.422 2.109h0.031c1.094 0 2.594-1.437 3.422-2.109 2.078-1.656 4.172-3.313 6.266-4.953 1.016-0.797 2.297-2.531 2.297-3.859zM28 6.5v17c0 1.375-1.125 2.5-2.5 2.5h-23c-1.375 0-2.5-1.125-2.5-2.5v-17c0-1.375 1.125-2.5 2.5-2.5h23c1.375 0 2.5 1.125 2.5 2.5z"></path>
</symbol>
<symbol id="icon-phone" viewBox="0 0 22 28">
<title>phone</title>
<path d="M22 19.375c0 0.562-0.25 1.656-0.484 2.172-0.328 0.766-1.203 1.266-1.906 1.656-0.922 0.5-1.859 0.797-2.906 0.797-1.453 0-2.766-0.594-4.094-1.078-0.953-0.344-1.875-0.766-2.734-1.297-2.656-1.641-5.859-4.844-7.5-7.5-0.531-0.859-0.953-1.781-1.297-2.734-0.484-1.328-1.078-2.641-1.078-4.094 0-1.047 0.297-1.984 0.797-2.906 0.391-0.703 0.891-1.578 1.656-1.906 0.516-0.234 1.609-0.484 2.172-0.484 0.109 0 0.219 0 0.328 0.047 0.328 0.109 0.672 0.875 0.828 1.188 0.5 0.891 0.984 1.797 1.5 2.672 0.25 0.406 0.719 0.906 0.719 1.391 0 0.953-2.828 2.344-2.828 3.187 0 0.422 0.391 0.969 0.609 1.344 1.578 2.844 3.547 4.813 6.391 6.391 0.375 0.219 0.922 0.609 1.344 0.609 0.844 0 2.234-2.828 3.187-2.828 0.484 0 0.984 0.469 1.391 0.719 0.875 0.516 1.781 1 2.672 1.5 0.313 0.156 1.078 0.5 1.188 0.828 0.047 0.109 0.047 0.219 0.047 0.328z"></path>
</symbol>
<symbol id="icon-phone-square" viewBox="0 0 24 28">
<title>phone-square</title>
<path d="M20 18.641c0-0.078 0-0.172-0.031-0.25-0.094-0.281-2.375-1.437-2.812-1.687-0.297-0.172-0.656-0.516-1.016-0.516-0.688 0-1.703 2.047-2.312 2.047-0.313 0-0.703-0.281-0.984-0.438-2.063-1.156-3.484-2.578-4.641-4.641-0.156-0.281-0.438-0.672-0.438-0.984 0-0.609 2.047-1.625 2.047-2.312 0-0.359-0.344-0.719-0.516-1.016-0.25-0.438-1.406-2.719-1.687-2.812-0.078-0.031-0.172-0.031-0.25-0.031-0.406 0-1.203 0.187-1.578 0.344-1.031 0.469-1.781 2.438-1.781 3.516 0 1.047 0.422 2 0.781 2.969 1.25 3.422 4.969 7.141 8.391 8.391 0.969 0.359 1.922 0.781 2.969 0.781 1.078 0 3.047-0.75 3.516-1.781 0.156-0.375 0.344-1.172 0.344-1.578zM24 6.5v15c0 2.484-2.016 4.5-4.5 4.5h-15c-2.484 0-4.5-2.016-4.5-4.5v-15c0-2.484 2.016-4.5 4.5-4.5h15c2.484 0 4.5 2.016 4.5 4.5z"></path>
</symbol>
<symbol id="icon-envelope" viewBox="0 0 28 28">
<title>envelope</title>
<path d="M28 11.094v12.406c0 1.375-1.125 2.5-2.5 2.5h-23c-1.375 0-2.5-1.125-2.5-2.5v-12.406c0.469 0.516 1 0.969 1.578 1.359 2.594 1.766 5.219 3.531 7.766 5.391 1.313 0.969 2.938 2.156 4.641 2.156h0.031c1.703 0 3.328-1.188 4.641-2.156 2.547-1.844 5.172-3.625 7.781-5.391 0.562-0.391 1.094-0.844 1.563-1.359zM28 6.5c0 1.75-1.297 3.328-2.672 4.281-2.438 1.687-4.891 3.375-7.313 5.078-1.016 0.703-2.734 2.141-4 2.141h-0.031c-1.266 0-2.984-1.437-4-2.141-2.422-1.703-4.875-3.391-7.297-5.078-1.109-0.75-2.688-2.516-2.688-3.938 0-1.531 0.828-2.844 2.5-2.844h23c1.359 0 2.5 1.125 2.5 2.5z"></path>
</symbol>
<symbol id="icon-arrows-v" viewBox="0 0 12 28">
<title>arrows-v</title>
<path d="M11 5q0 0.406-0.297 0.703t-0.703 0.297h-2v16h2q0.406 0 0.703 0.297t0.297 0.703-0.297 0.703l-4 4q-0.297 0.297-0.703 0.297t-0.703-0.297l-4-4q-0.297-0.297-0.297-0.703t0.297-0.703 0.703-0.297h2v-16h-2q-0.406 0-0.703-0.297t-0.297-0.703 0.297-0.703l4-4q0.297-0.297 0.703-0.297t0.703 0.297l4 4q0.297 0.297 0.297 0.703z"></path>
</symbol>
<symbol id="icon-arrows-h" viewBox="0 0 28 28">
<title>arrows-h</title>
<path d="M28 14q0 0.406-0.297 0.703l-4 4q-0.297 0.297-0.703 0.297t-0.703-0.297-0.297-0.703v-2h-16v2q0 0.406-0.297 0.703t-0.703 0.297-0.703-0.297l-4-4q-0.297-0.297-0.297-0.703t0.297-0.703l4-4q0.297-0.297 0.703-0.297t0.703 0.297 0.297 0.703v2h16v-2q0-0.406 0.297-0.703t0.703-0.297 0.703 0.297l4 4q0.297 0.297 0.297 0.703z"></path>
</symbol>
<symbol id="icon-beer" viewBox="0 0 27 28">
<title>beer</title>
<path d="M10 14v-6h-4v4q0 0.828 0.586 1.414t1.414 0.586h2zM26 21v3h-18v-3l2-3h-2q-2.484 0-4.242-1.758t-1.758-4.242v-5l-1-1 0.5-2h7.5l0.5-2h15l0.5 3-1 0.5v12.5z"></path>
</symbol>
<symbol id="icon-shield" viewBox="0 0 20 28">
<title>shield</title>
<path d="M17 15v-10h-7v17.766q1.859-0.984 3.328-2.141 3.672-2.875 3.672-5.625zM20 3v12q0 1.344-0.523 2.664t-1.297 2.344-1.844 1.992-1.977 1.609-1.891 1.211-1.398 0.773-0.664 0.313q-0.187 0.094-0.406 0.094t-0.406-0.094q-0.25-0.109-0.664-0.313t-1.398-0.773-1.891-1.211-1.977-1.609-1.844-1.992-1.297-2.344-0.523-2.664v-12q0-0.406 0.297-0.703t0.703-0.297h18q0.406 0 0.703 0.297t0.297 0.703z"></path>
</symbol>
<symbol id="icon-long-arrow-down" viewBox="0 0 12 28">
<title>long-arrow-down</title>
<path d="M11.953 20.297q0.125 0.297-0.078 0.547l-5.469 6q-0.156 0.156-0.359 0.156-0.219 0-0.375-0.156l-5.547-6q-0.203-0.25-0.078-0.547 0.141-0.297 0.453-0.297h3.5v-19.5q0-0.219 0.141-0.359t0.359-0.141h3q0.219 0 0.359 0.141t0.141 0.359v19.5h3.5q0.328 0 0.453 0.297z"></path>
</symbol>
<symbol id="icon-long-arrow-up" viewBox="0 0 12 28">
<title>long-arrow-up</title>
<path d="M11.953 7.703q-0.141 0.297-0.453 0.297h-3.5v19.5q0 0.219-0.141 0.359t-0.359 0.141h-3q-0.219 0-0.359-0.141t-0.141-0.359v-19.5h-3.5q-0.328 0-0.453-0.297t0.078-0.547l5.469-6q0.156-0.156 0.359-0.156 0.219 0 0.375 0.156l5.547 6q0.203 0.25 0.078 0.547z"></path>
</symbol>
<symbol id="icon-long-arrow-left" viewBox="0 0 29 28">
<title>long-arrow-left</title>
<path d="M28 12.5v3q0 0.219-0.141 0.359t-0.359 0.141h-19.5v3.5q0 0.328-0.297 0.453t-0.547-0.078l-6-5.469q-0.156-0.156-0.156-0.359 0-0.219 0.156-0.375l6-5.531q0.25-0.219 0.547-0.094 0.297 0.141 0.297 0.453v3.5h19.5q0.219 0 0.359 0.141t0.141 0.359z"></path>
</symbol>
<symbol id="icon-long-arrow-right" viewBox="0 0 27 28">
<title>long-arrow-right</title>
<path d="M27 13.953q0 0.219-0.156 0.375l-6 5.531q-0.25 0.219-0.547 0.094-0.297-0.141-0.297-0.453v-3.5h-19.5q-0.219 0-0.359-0.141t-0.141-0.359v-3q0-0.219 0.141-0.359t0.359-0.141h19.5v-3.5q0-0.328 0.297-0.453t0.547 0.078l6 5.469q0.156 0.156 0.156 0.359z"></path>
</symbol>
<symbol id="icon-bomb" viewBox="0 0 28 28">
<title>bomb</title>
<path d="M8.922 9.203q-0.156-0.391-0.531-0.547t-0.766 0q-1.687 0.688-2.984 1.984t-1.984 2.984q-0.156 0.391 0 0.766t0.547 0.531q0.203 0.078 0.375 0.078 0.656 0 0.938-0.625 0.531-1.313 1.539-2.32t2.32-1.539q0.391-0.172 0.547-0.547t0-0.766zM23.641 3.641l0.719 0.719-3.813 3.797 1.062 1.062q0.297 0.297 0.297 0.711t-0.297 0.711l-1 1q1.391 2.516 1.391 5.359 0 2.234-0.867 4.273t-2.344 3.516-3.516 2.344-4.273 0.867-4.273-0.867-3.516-2.344-2.344-3.516-0.867-4.273 0.867-4.273 2.344-3.516 3.516-2.344 4.273-0.867q2.844 0 5.359 1.391l1-1q0.297-0.297 0.711-0.297t0.711 0.297l1.062 1.062zM23.766 2.766q-0.156 0.156-0.344 0.156-0.203 0-0.359-0.156l-1.422-1.406q-0.141-0.156-0.141-0.359t0.141-0.359q0.156-0.141 0.359-0.141t0.359 0.141l1.406 1.422q0.156 0.141 0.156 0.352t-0.156 0.352zM27.359 6.359q-0.172 0.141-0.359 0.141t-0.359-0.141l-1.406-1.422q-0.156-0.141-0.156-0.352t0.156-0.352q0.141-0.156 0.352-0.156t0.352 0.156l1.422 1.406q0.141 0.156 0.141 0.359t-0.141 0.359zM28 3.5q0 0.219-0.141 0.359t-0.359 0.141h-1.5q-0.219 0-0.359-0.141t-0.141-0.359 0.141-0.359 0.359-0.141h1.5q0.219 0 0.359 0.141t0.141 0.359zM25 0.5v1.5q0 0.219-0.141 0.359t-0.359 0.141-0.359-0.141-0.141-0.359v-1.5q0-0.219 0.141-0.359t0.359-0.141 0.359 0.141 0.141 0.359zM27.359 1.359l-1.422 1.406q-0.156 0.156-0.344 0.156-0.203 0-0.359-0.156-0.156-0.141-0.156-0.352t0.156-0.352l1.406-1.422q0.156-0.141 0.359-0.141t0.359 0.141q0.141 0.156 0.141 0.359t-0.141 0.359z"></path>
</symbol>
<symbol id="icon-hand-spock-o" viewBox="0 0 30 28">
<title>hand-spock-o</title>
<path d="M12.75 2q-0.75 0-1.242 0.531t-0.492 1.281q0 0.219 0.047 0.437l2.344 9.75h-0.406l-1.813-7.531q-0.141-0.594-0.617-0.969t-1.086-0.375q-0.734 0-1.234 0.531t-0.5 1.266q0 0.172 0.063 0.453 0.047 0.203 0.609 2.516t1.062 4.406 0.5 2.156v3.547l-4.797-3.594q-0.531-0.406-1.203-0.406-0.812 0-1.398 0.57t-0.586 1.383q0 1.047 0.875 1.719l7.922 5.922q0.531 0.406 1.188 0.406h10.844q0.516 0 0.922-0.32t0.531-0.82l1.563-6.266q0.125-0.469 0.156-1.375t0.141-1.344l1.813-7.469q0.047-0.187 0.047-0.406 0-0.719-0.516-1.234t-1.25-0.516q-0.594 0-1.078 0.398t-0.625 0.977l-1.547 6.375h-0.406l2.063-8.547q0.047-0.219 0.047-0.438 0-0.734-0.5-1.25t-1.25-0.516q-0.594 0-1.070 0.375t-0.617 0.969l-2.266 9.406h-1.984l-2.562-10.656q-0.141-0.594-0.617-0.969t-1.070-0.375zM22.828 28h-10.844q-1.328 0-2.391-0.797l-7.922-5.938q-0.781-0.594-1.227-1.469t-0.445-1.844q0-1.641 1.172-2.797t2.812-1.156q0.391 0 0.773 0.086t0.648 0.172 0.641 0.32 0.547 0.359 0.602 0.461 0.586 0.445l-1.922-8q-0.109-0.547-0.109-0.922 0-1.453 0.938-2.531t2.375-1.234q0.219-1.359 1.258-2.258t2.43-0.898q1.297 0 2.312 0.805t1.328 2.070l1.609 6.687 1.297-5.437q0.313-1.266 1.328-2.070t2.312-0.805q1.359 0 2.383 0.844t1.289 2.172q1.453 0.156 2.422 1.219t0.969 2.516q0 0.469-0.109 0.891l-1.813 7.453q-0.078 0.344-0.078 1.047 0 0.797-0.203 1.687l-1.578 6.266q-0.297 1.172-1.242 1.914t-2.148 0.742z"></path>
</symbol>
<symbol id="icon-credit-card-alt" viewBox="0 0 36 28">
<title>credit-card-alt</title>
<path d="M0 23.5v-9.5h36v9.5q0 1.031-0.734 1.766t-1.766 0.734h-31q-1.031 0-1.766-0.734t-0.734-1.766zM10 20v2h6v-2h-6zM4 20v2h4v-2h-4zM33.5 2q1.031 0 1.766 0.734t0.734 1.766v3.5h-36v-3.5q0-1.031 0.734-1.766t1.766-0.734h31z"></path>
</symbol>
<symbol id="icon-fort-awesome" viewBox="0 0 26 28">
<title>fort-awesome</title>
<path d="M10 15.75v-3.5q0-0.25-0.25-0.25h-1.5q-0.25 0-0.25 0.25v3.5q0 0.25 0.25 0.25h1.5q0.25 0 0.25-0.25zM18 15.75v-3.5q0-0.25-0.25-0.25h-1.5q-0.25 0-0.25 0.25v3.5q0 0.25 0.25 0.25h1.5q0.25 0 0.25-0.25zM26 16.25v11.75h-10v-5q0-1.25-0.875-2.125t-2.125-0.875-2.125 0.875-0.875 2.125v5h-10v-11.75q0-0.25 0.25-0.25h1.5q0.25 0 0.25 0.25v1.75h2v-9.75q0-0.25 0.25-0.25h1.5q0.25 0 0.25 0.25v1.75h2v-1.75q0-0.25 0.25-0.25h1.5q0.25 0 0.25 0.25v1.75h2v-1.75q0-0.25 0.25-0.25h0.25v-6.141q-0.5-0.297-0.5-0.859 0-0.406 0.297-0.703t0.703-0.297 0.703 0.297 0.297 0.703q0 0.562-0.5 0.859v0.141h4.25q0.25 0 0.25 0.25v3.5q0 0.25-0.25 0.25h-4.25v2h0.25q0.25 0 0.25 0.25v1.75h2v-1.75q0-0.25 0.25-0.25h1.5q0.25 0 0.25 0.25v1.75h2v-1.75q0-0.25 0.25-0.25h1.5q0.25 0 0.25 0.25v9.75h2v-1.75q0-0.25 0.25-0.25h1.5q0.25 0 0.25 0.25z"></path>
</symbol>
<symbol id="icon-google-plus" viewBox="0 0 32 32">
<title>google-plus</title>
<path d="M10.181 14.294v3.494h5.775c-0.231 1.5-1.744 4.394-5.775 4.394-3.475 0-6.313-2.881-6.313-6.431s2.838-6.431 6.313-6.431c1.981 0 3.3 0.844 4.056 1.569l2.762-2.662c-1.775-1.656-4.075-2.662-6.819-2.662-5.631 0.006-10.181 4.556-10.181 10.188s4.55 10.181 10.181 10.181c5.875 0 9.775-4.131 9.775-9.95 0-0.669-0.075-1.181-0.163-1.688h-9.613z"></path>
<path d="M32 14h-3v-3h-3v3h-3v3h3v3h3v-3h3z"></path>
</symbol>
<symbol id="icon-facebook" viewBox="0 0 32 32">
<title>facebook</title>
<path d="M19 6h5v-6h-5c-3.86 0-7 3.14-7 7v3h-4v6h4v16h6v-16h5l1-6h-6v-3c0-0.542 0.458-1 1-1z"></path>
</symbol>
<symbol id="icon-instagram" viewBox="0 0 32 32">
<title>instagram</title>
<path d="M16 2.881c4.275 0 4.781 0.019 6.462 0.094 1.563 0.069 2.406 0.331 2.969 0.55 0.744 0.288 1.281 0.638 1.837 1.194 0.563 0.563 0.906 1.094 1.2 1.838 0.219 0.563 0.481 1.412 0.55 2.969 0.075 1.688 0.094 2.194 0.094 6.463s-0.019 4.781-0.094 6.463c-0.069 1.563-0.331 2.406-0.55 2.969-0.288 0.744-0.637 1.281-1.194 1.837-0.563 0.563-1.094 0.906-1.837 1.2-0.563 0.219-1.413 0.481-2.969 0.55-1.688 0.075-2.194 0.094-6.463 0.094s-4.781-0.019-6.463-0.094c-1.563-0.069-2.406-0.331-2.969-0.55-0.744-0.288-1.281-0.637-1.838-1.194-0.563-0.563-0.906-1.094-1.2-1.837-0.219-0.563-0.481-1.413-0.55-2.969-0.075-1.688-0.094-2.194-0.094-6.463s0.019-4.781 0.094-6.463c0.069-1.563 0.331-2.406 0.55-2.969 0.288-0.744 0.638-1.281 1.194-1.838 0.563-0.563 1.094-0.906 1.838-1.2 0.563-0.219 1.412-0.481 2.969-0.55 1.681-0.075 2.188-0.094 6.463-0.094zM16 0c-4.344 0-4.887 0.019-6.594 0.094-1.7 0.075-2.869 0.35-3.881 0.744-1.056 0.412-1.95 0.956-2.837 1.85-0.894 0.888-1.438 1.781-1.85 2.831-0.394 1.019-0.669 2.181-0.744 3.881-0.075 1.713-0.094 2.256-0.094 6.6s0.019 4.887 0.094 6.594c0.075 1.7 0.35 2.869 0.744 3.881 0.413 1.056 0.956 1.95 1.85 2.837 0.887 0.887 1.781 1.438 2.831 1.844 1.019 0.394 2.181 0.669 3.881 0.744 1.706 0.075 2.25 0.094 6.594 0.094s4.888-0.019 6.594-0.094c1.7-0.075 2.869-0.35 3.881-0.744 1.050-0.406 1.944-0.956 2.831-1.844s1.438-1.781 1.844-2.831c0.394-1.019 0.669-2.181 0.744-3.881 0.075-1.706 0.094-2.25 0.094-6.594s-0.019-4.887-0.094-6.594c-0.075-1.7-0.35-2.869-0.744-3.881-0.394-1.063-0.938-1.956-1.831-2.844-0.887-0.887-1.781-1.438-2.831-1.844-1.019-0.394-2.181-0.669-3.881-0.744-1.712-0.081-2.256-0.1-6.6-0.1v0z"></path>
<path d="M16 7.781c-4.537 0-8.219 3.681-8.219 8.219s3.681 8.219 8.219 8.219 8.219-3.681 8.219-8.219c0-4.537-3.681-8.219-8.219-8.219zM16 21.331c-2.944 0-5.331-2.387-5.331-5.331s2.387-5.331 5.331-5.331c2.944 0 5.331 2.387 5.331 5.331s-2.387 5.331-5.331 5.331z"></path>
<path d="M26.462 7.456c0 1.060-0.859 1.919-1.919 1.919s-1.919-0.859-1.919-1.919c0-1.060 0.859-1.919 1.919-1.919s1.919 0.859 1.919 1.919z"></path>
</symbol>
<symbol id="icon-twitter" viewBox="0 0 32 32">
<title>twitter</title>
<path d="M32 7.075c-1.175 0.525-2.444 0.875-3.769 1.031 1.356-0.813 2.394-2.1 2.887-3.631-1.269 0.75-2.675 1.3-4.169 1.594-1.2-1.275-2.906-2.069-4.794-2.069-3.625 0-6.563 2.938-6.563 6.563 0 0.512 0.056 1.012 0.169 1.494-5.456-0.275-10.294-2.888-13.531-6.862-0.563 0.969-0.887 2.1-0.887 3.3 0 2.275 1.156 4.287 2.919 5.463-1.075-0.031-2.087-0.331-2.975-0.819 0 0.025 0 0.056 0 0.081 0 3.181 2.263 5.838 5.269 6.437-0.55 0.15-1.131 0.231-1.731 0.231-0.425 0-0.831-0.044-1.237-0.119 0.838 2.606 3.263 4.506 6.131 4.563-2.25 1.762-5.075 2.813-8.156 2.813-0.531 0-1.050-0.031-1.569-0.094 2.913 1.869 6.362 2.95 10.069 2.95 12.075 0 18.681-10.006 18.681-18.681 0-0.287-0.006-0.569-0.019-0.85 1.281-0.919 2.394-2.075 3.275-3.394z"></path>
</symbol>
<symbol id="icon-youtube" viewBox="0 0 32 32">
<title>youtube</title>
<path d="M31.681 9.6c0 0-0.313-2.206-1.275-3.175-1.219-1.275-2.581-1.281-3.206-1.356-4.475-0.325-11.194-0.325-11.194-0.325h-0.012c0 0-6.719 0-11.194 0.325-0.625 0.075-1.987 0.081-3.206 1.356-0.963 0.969-1.269 3.175-1.269 3.175s-0.319 2.588-0.319 5.181v2.425c0 2.587 0.319 5.181 0.319 5.181s0.313 2.206 1.269 3.175c1.219 1.275 2.819 1.231 3.531 1.369 2.563 0.244 10.881 0.319 10.881 0.319s6.725-0.012 11.2-0.331c0.625-0.075 1.988-0.081 3.206-1.356 0.962-0.969 1.275-3.175 1.275-3.175s0.319-2.587 0.319-5.181v-2.425c-0.006-2.588-0.325-5.181-0.325-5.181zM12.694 20.15v-8.994l8.644 4.513-8.644 4.481z"></path>
</symbol>
<symbol id="icon-linkedin2" viewBox="0 0 32 32">
<title>linkedin2</title>
<path d="M12 12h5.535v2.837h0.079c0.77-1.381 2.655-2.837 5.464-2.837 5.842 0 6.922 3.637 6.922 8.367v9.633h-5.769v-8.54c0-2.037-0.042-4.657-3.001-4.657-3.005 0-3.463 2.218-3.463 4.509v8.688h-5.767v-18z"></path>
<path d="M2 12h6v18h-6v-18z"></path>
<path d="M8 7c0 1.657-1.343 3-3 3s-3-1.343-3-3c0-1.657 1.343-3 3-3s3 1.343 3 3z"></path>
</symbol>
<symbol id="icon-cart" viewBox="0 0 32 32">
<title>cart</title>
<path d="M12 29c0 1.657-1.343 3-3 3s-3-1.343-3-3c0-1.657 1.343-3 3-3s3 1.343 3 3z"></path>
<path d="M32 29c0 1.657-1.343 3-3 3s-3-1.343-3-3c0-1.657 1.343-3 3-3s3 1.343 3 3z"></path>
<path d="M32 16v-12h-24c0-1.105-0.895-2-2-2h-6v2h4l1.502 12.877c-0.915 0.733-1.502 1.859-1.502 3.123 0 2.209 1.791 4 4 4h24v-2h-24c-1.105 0-2-0.895-2-2 0-0.007 0-0.014 0-0.020l26-3.98z"></path>
</symbol>
<symbol id="icon-credit-card" viewBox="0 0 32 32">
<title>credit-card</title>
<path d="M29 4h-26c-1.65 0-3 1.35-3 3v18c0 1.65 1.35 3 3 3h26c1.65 0 3-1.35 3-3v-18c0-1.65-1.35-3-3-3zM3 6h26c0.542 0 1 0.458 1 1v3h-28v-3c0-0.542 0.458-1 1-1zM29 26h-26c-0.542 0-1-0.458-1-1v-9h28v9c0 0.542-0.458 1-1 1zM4 20h2v4h-2zM8 20h2v4h-2zM12 20h2v4h-2z"></path>
</symbol>
<symbol id="icon-volume-high" viewBox="0 0 34 32">
<title>volume-high</title>
<path d="M27.814 28.814c-0.384 0-0.768-0.146-1.061-0.439-0.586-0.586-0.586-1.535 0-2.121 2.739-2.739 4.247-6.38 4.247-10.253s-1.508-7.514-4.247-10.253c-0.586-0.586-0.586-1.536 0-2.121s1.536-0.586 2.121 0c3.305 3.305 5.126 7.7 5.126 12.374s-1.82 9.069-5.126 12.374c-0.293 0.293-0.677 0.439-1.061 0.439zM22.485 25.985c-0.384 0-0.768-0.146-1.061-0.439-0.586-0.586-0.586-1.535 0-2.121 4.094-4.094 4.094-10.755 0-14.849-0.586-0.586-0.586-1.536 0-2.121s1.536-0.586 2.121 0c2.55 2.55 3.954 5.94 3.954 9.546s-1.404 6.996-3.954 9.546c-0.293 0.293-0.677 0.439-1.061 0.439v0zM17.157 23.157c-0.384 0-0.768-0.146-1.061-0.439-0.586-0.586-0.586-1.535 0-2.121 2.534-2.534 2.534-6.658 0-9.192-0.586-0.586-0.586-1.536 0-2.121s1.535-0.586 2.121 0c3.704 3.704 3.704 9.731 0 13.435-0.293 0.293-0.677 0.439-1.061 0.439z"></path>
<path d="M13 30c-0.26 0-0.516-0.102-0.707-0.293l-7.707-7.707h-3.586c-0.552 0-1-0.448-1-1v-10c0-0.552 0.448-1 1-1h3.586l7.707-7.707c0.286-0.286 0.716-0.372 1.090-0.217s0.617 0.519 0.617 0.924v26c0 0.404-0.244 0.769-0.617 0.924-0.124 0.051-0.254 0.076-0.383 0.076z"></path>
</symbol>
<symbol id="icon-volume-mute" viewBox="0 0 32 32">
<title>volume-mute</title>
<path d="M13 30c-0.26 0-0.516-0.102-0.707-0.293l-7.707-7.707h-3.586c-0.552 0-1-0.448-1-1v-10c0-0.552 0.448-1 1-1h3.586l7.707-7.707c0.286-0.286 0.716-0.372 1.090-0.217s0.617 0.519 0.617 0.924v26c0 0.404-0.244 0.769-0.617 0.924-0.124 0.051-0.254 0.076-0.383 0.076z"></path>
</symbol>
<symbol id="icon-volume-mute2" viewBox="0 0 32 32">
<title>volume-mute2</title>
<path d="M30 19.348v2.652h-2.652l-3.348-3.348-3.348 3.348h-2.652v-2.652l3.348-3.348-3.348-3.348v-2.652h2.652l3.348 3.348 3.348-3.348h2.652v2.652l-3.348 3.348 3.348 3.348z"></path>
<path d="M13 30c-0.26 0-0.516-0.102-0.707-0.293l-7.707-7.707h-3.586c-0.552 0-1-0.448-1-1v-10c0-0.552 0.448-1 1-1h3.586l7.707-7.707c0.286-0.286 0.716-0.372 1.090-0.217s0.617 0.519 0.617 0.924v26c0 0.404-0.244 0.769-0.617 0.924-0.124 0.051-0.254 0.076-0.383 0.076z"></path>
</symbol>
</defs>
</svg>
