<!-- Generated by IcoMoon.io -->
<svg version="1.1" xmlns="http://www.w3.org/2000/svg" width="28" height="28" viewBox="0 0 28 28">
<title>arrows-h</title>
<path fill="#444" d="M28 14q0 0.406-0.297 0.703l-4 4q-0.297 0.297-0.703 0.297t-0.703-0.297-0.297-0.703v-2h-16v2q0 0.406-0.297 0.703t-0.703 0.297-0.703-0.297l-4-4q-0.297-0.297-0.297-0.703t0.297-0.703l4-4q0.297-0.297 0.703-0.297t0.703 0.297 0.297 0.703v2h16v-2q0-0.406 0.297-0.703t0.703-0.297 0.703 0.297l4 4q0.297 0.297 0.297 0.703z"></path>
</svg>
