<!-- Generated by IcoMoon.io -->
<svg version="1.1" xmlns="http://www.w3.org/2000/svg" width="30" height="28" viewBox="0 0 30 28">
<title>hand-spock-o</title>
<path fill="#444" d="M12.75 2q-0.75 0-1.242 0.531t-0.492 1.281q0 0.219 0.047 0.437l2.344 9.75h-0.406l-1.813-7.531q-0.141-0.594-0.617-0.969t-1.086-0.375q-0.734 0-1.234 0.531t-0.5 1.266q0 0.172 0.063 0.453 0.047 0.203 0.609 2.516t1.062 4.406 0.5 2.156v3.547l-4.797-3.594q-0.531-0.406-1.203-0.406-0.812 0-1.398 0.57t-0.586 1.383q0 1.047 0.875 1.719l7.922 5.922q0.531 0.406 1.188 0.406h10.844q0.516 0 0.922-0.32t0.531-0.82l1.563-6.266q0.125-0.469 0.156-1.375t0.141-1.344l1.813-7.469q0.047-0.187 0.047-0.406 0-0.719-0.516-1.234t-1.25-0.516q-0.594 0-1.078 0.398t-0.625 0.977l-1.547 6.375h-0.406l2.063-8.547q0.047-0.219 0.047-0.438 0-0.734-0.5-1.25t-1.25-0.516q-0.594 0-1.070 0.375t-0.617 0.969l-2.266 9.406h-1.984l-2.562-10.656q-0.141-0.594-0.617-0.969t-1.070-0.375zM22.828 28h-10.844q-1.328 0-2.391-0.797l-7.922-5.938q-0.781-0.594-1.227-1.469t-0.445-1.844q0-1.641 1.172-2.797t2.812-1.156q0.391 0 0.773 0.086t0.648 0.172 0.641 0.32 0.547 0.359 0.602 0.461 0.586 0.445l-1.922-8q-0.109-0.547-0.109-0.922 0-1.453 0.938-2.531t2.375-1.234q0.219-1.359 1.258-2.258t2.43-0.898q1.297 0 2.312 0.805t1.328 2.070l1.609 6.687 1.297-5.437q0.313-1.266 1.328-2.070t2.312-0.805q1.359 0 2.383 0.844t1.289 2.172q1.453 0.156 2.422 1.219t0.969 2.516q0 0.469-0.109 0.891l-1.813 7.453q-0.078 0.344-0.078 1.047 0 0.797-0.203 1.687l-1.578 6.266q-0.297 1.172-1.242 1.914t-2.148 0.742z"></path>
</svg>
