<!-- Generated by IcoMoon.io -->
<svg version="1.1" xmlns="http://www.w3.org/2000/svg" width="12" height="28" viewBox="0 0 12 28">
<title>arrows-v</title>
<path fill="#444" d="M11 5q0 0.406-0.297 0.703t-0.703 0.297h-2v16h2q0.406 0 0.703 0.297t0.297 0.703-0.297 0.703l-4 4q-0.297 0.297-0.703 0.297t-0.703-0.297l-4-4q-0.297-0.297-0.297-0.703t0.297-0.703 0.703-0.297h2v-16h-2q-0.406 0-0.703-0.297t-0.297-0.703 0.297-0.703l4-4q0.297-0.297 0.703-0.297t0.703 0.297l4 4q0.297 0.297 0.297 0.703z"></path>
</svg>
